<mxfile host="app.diagrams.net" modified="2020-12-06T08:35:46.741Z" agent="5.0 (Macintosh; Intel Mac OS X 10_15_7) AppleWebKit/537.36 (KHTML, like Gecko) Chrome/87.0.4280.88 Safari/537.36" etag="MVouNV1Ox6OD0ysuADY1" version="13.10.9" type="github">
  <diagram name="Page-1" id="55a83fd1-7818-8e21-69c5-c3457e3827bb">
    <mxGraphModel dx="1737" dy="819" grid="0" gridSize="10" guides="1" tooltips="1" connect="1" arrows="1" fold="1" page="0" pageScale="1" pageWidth="1100" pageHeight="850" background="none" math="0" shadow="1">
      <root>
        <mxCell id="0" />
        <mxCell id="1" parent="0" />
        <mxCell id="K5k7KNpOYp-Wtp5Cq2V4-26" style="edgeStyle=orthogonalEdgeStyle;rounded=0;orthogonalLoop=1;jettySize=auto;html=1;" edge="1" parent="1" source="K5k7KNpOYp-Wtp5Cq2V4-20" target="K5k7KNpOYp-Wtp5Cq2V4-24">
          <mxGeometry relative="1" as="geometry" />
        </mxCell>
        <mxCell id="K5k7KNpOYp-Wtp5Cq2V4-27" style="edgeStyle=orthogonalEdgeStyle;rounded=0;orthogonalLoop=1;jettySize=auto;html=1;" edge="1" parent="1" source="K5k7KNpOYp-Wtp5Cq2V4-20" target="K5k7KNpOYp-Wtp5Cq2V4-25">
          <mxGeometry relative="1" as="geometry">
            <Array as="points">
              <mxPoint x="525" y="140" />
              <mxPoint x="840" y="140" />
            </Array>
          </mxGeometry>
        </mxCell>
        <mxCell id="K5k7KNpOYp-Wtp5Cq2V4-45" style="edgeStyle=orthogonalEdgeStyle;rounded=0;orthogonalLoop=1;jettySize=auto;html=1;entryX=0.5;entryY=0;entryDx=0;entryDy=0;" edge="1" parent="1" source="K5k7KNpOYp-Wtp5Cq2V4-20" target="K5k7KNpOYp-Wtp5Cq2V4-23">
          <mxGeometry relative="1" as="geometry">
            <Array as="points">
              <mxPoint x="525" y="140" />
              <mxPoint x="223" y="140" />
            </Array>
          </mxGeometry>
        </mxCell>
        <mxCell id="K5k7KNpOYp-Wtp5Cq2V4-20" value="&lt;h1&gt;条码物料管理系统&lt;/h1&gt;" style="rounded=1;whiteSpace=wrap;html=1;" vertex="1" parent="1">
          <mxGeometry x="330" y="40" width="390" height="50" as="geometry" />
        </mxCell>
        <mxCell id="K5k7KNpOYp-Wtp5Cq2V4-23" value="&lt;h4&gt;基础数据设置&lt;/h4&gt;" style="whiteSpace=wrap;html=1;fillColor=#ffe6cc;strokeColor=#d79b00;" vertex="1" parent="1">
          <mxGeometry x="160" y="220" width="125" height="40" as="geometry" />
        </mxCell>
        <mxCell id="K5k7KNpOYp-Wtp5Cq2V4-24" value="&lt;h4 style=&quot;margin: 0px ; font-stretch: normal ; line-height: normal ; font-family: &amp;#34;pingfang sc&amp;#34;&quot;&gt;入库管理&lt;span class=&quot;s1&quot; style=&quot;font-stretch: normal ; line-height: normal ; font-family: &amp;#34;helvetica&amp;#34;&quot;&gt;&lt;span class=&quot;Apple-converted-space&quot;&gt;&amp;nbsp;&lt;/span&gt;&lt;/span&gt;&lt;/h4&gt;" style="whiteSpace=wrap;html=1;fillColor=#ffe6cc;strokeColor=#d79b00;" vertex="1" parent="1">
          <mxGeometry x="462.5" y="220" width="125" height="40" as="geometry" />
        </mxCell>
        <mxCell id="K5k7KNpOYp-Wtp5Cq2V4-25" value="&lt;h4 style=&quot;margin: 0px ; font-stretch: normal ; line-height: normal ; font-family: &amp;#34;pingfang sc&amp;#34;&quot;&gt;出库管理&lt;span class=&quot;s1&quot; style=&quot;font-stretch: normal ; line-height: normal ; font-family: &amp;#34;helvetica&amp;#34;&quot;&gt;&lt;span class=&quot;Apple-converted-space&quot;&gt;&amp;nbsp;&lt;/span&gt;&lt;/span&gt;&lt;/h4&gt;" style="whiteSpace=wrap;html=1;fillColor=#ffe6cc;strokeColor=#d79b00;" vertex="1" parent="1">
          <mxGeometry x="780" y="220" width="125" height="40" as="geometry" />
        </mxCell>
        <mxCell id="K5k7KNpOYp-Wtp5Cq2V4-29" value="&lt;p class=&quot;p1&quot; style=&quot;margin: 0px ; font-stretch: normal ; line-height: normal ; font-family: &amp;#34;pingfang sc&amp;#34;&quot;&gt;编码设置&lt;/p&gt;&lt;p class=&quot;p1&quot; style=&quot;margin: 0px ; font-stretch: normal ; line-height: normal ; font-family: &amp;#34;pingfang sc&amp;#34;&quot;&gt;&lt;span class=&quot;s1&quot; style=&quot;font-stretch: normal ; line-height: normal ; font-family: &amp;#34;helvetica&amp;#34;&quot;&gt; &lt;/span&gt;仓库设置&lt;span class=&quot;s1&quot; style=&quot;font-stretch: normal ; line-height: normal ; font-family: &amp;#34;helvetica&amp;#34;&quot;&gt;&amp;nbsp;&lt;/span&gt;&lt;/p&gt;&lt;p class=&quot;p1&quot; style=&quot;margin: 0px ; font-stretch: normal ; line-height: normal ; font-family: &amp;#34;pingfang sc&amp;#34;&quot;&gt;库存品档案&lt;span class=&quot;s1&quot; style=&quot;font-stretch: normal ; line-height: normal ; font-family: &amp;#34;helvetica&amp;#34;&quot;&gt;&amp;nbsp;&lt;/span&gt;&lt;/p&gt;&lt;p class=&quot;p1&quot; style=&quot;margin: 0px ; font-stretch: normal ; line-height: normal ; font-family: &amp;#34;pingfang sc&amp;#34;&quot;&gt;供应商档案&lt;span class=&quot;s1&quot; style=&quot;font-stretch: normal ; line-height: normal ; font-family: &amp;#34;helvetica&amp;#34;&quot;&gt;&amp;nbsp;&lt;/span&gt;&lt;/p&gt;&lt;p class=&quot;p1&quot; style=&quot;margin: 0px ; font-stretch: normal ; line-height: normal ; font-family: &amp;#34;pingfang sc&amp;#34;&quot;&gt;客户档案&lt;span class=&quot;s1&quot; style=&quot;font-stretch: normal ; line-height: normal ; font-family: &amp;#34;helvetica&amp;#34;&quot;&gt;&amp;nbsp;&lt;/span&gt;&lt;/p&gt;&lt;p class=&quot;p1&quot; style=&quot;margin: 0px ; font-stretch: normal ; line-height: normal ; font-family: &amp;#34;pingfang sc&amp;#34;&quot;&gt;出入库类别设置&lt;/p&gt;" style="whiteSpace=wrap;html=1;aspect=fixed;" vertex="1" parent="1">
          <mxGeometry x="160" y="270" width="125" height="125" as="geometry" />
        </mxCell>
        <mxCell id="K5k7KNpOYp-Wtp5Cq2V4-30" value="&lt;p class=&quot;p1&quot; style=&quot;margin: 0px ; font-stretch: normal ; line-height: normal ; font-family: &amp;#34;pingfang sc&amp;#34;&quot;&gt;入库单&lt;/p&gt;&lt;p class=&quot;p1&quot; style=&quot;margin: 0px ; font-stretch: normal ; line-height: normal ; font-family: &amp;#34;pingfang sc&amp;#34;&quot;&gt;入库单管理&lt;/p&gt;" style="whiteSpace=wrap;html=1;aspect=fixed;" vertex="1" parent="1">
          <mxGeometry x="462.5" y="270" width="125" height="125" as="geometry" />
        </mxCell>
        <mxCell id="K5k7KNpOYp-Wtp5Cq2V4-31" value="&lt;p class=&quot;p1&quot; style=&quot;margin: 0px ; font-stretch: normal ; line-height: normal ; font-family: &amp;#34;pingfang sc&amp;#34;&quot;&gt;出库单&lt;/p&gt;&lt;p class=&quot;p1&quot; style=&quot;margin: 0px ; font-stretch: normal ; line-height: normal ; font-family: &amp;#34;pingfang sc&amp;#34;&quot;&gt;出库单管理&lt;/p&gt;" style="whiteSpace=wrap;html=1;aspect=fixed;" vertex="1" parent="1">
          <mxGeometry x="780" y="270" width="125" height="125" as="geometry" />
        </mxCell>
        <mxCell id="K5k7KNpOYp-Wtp5Cq2V4-33" value="&lt;h4&gt;&lt;p class=&quot;p1&quot; style=&quot;margin: 0px; font-stretch: normal; line-height: normal; font-family: &amp;quot;pingfang sc&amp;quot;;&quot;&gt;库存管理&lt;/p&gt;&lt;/h4&gt;" style="whiteSpace=wrap;html=1;fillColor=#ffe6cc;strokeColor=#d79b00;fontStyle=1" vertex="1" parent="1">
          <mxGeometry x="160" y="410" width="125" height="40" as="geometry" />
        </mxCell>
        <mxCell id="K5k7KNpOYp-Wtp5Cq2V4-34" value="&lt;h4 style=&quot;margin: 0px ; font-stretch: normal ; line-height: normal ; font-family: &amp;quot;pingfang sc&amp;quot;&quot;&gt;&lt;p class=&quot;p1&quot; style=&quot;margin: 0px; font-stretch: normal; line-height: normal; font-family: &amp;quot;pingfang sc&amp;quot;;&quot;&gt;&lt;span class=&quot;s1&quot; style=&quot;font-stretch: normal ; line-height: normal ; font-family: &amp;quot;helvetica&amp;quot;&quot;&gt;PDA&lt;/span&gt;入库功能&lt;/p&gt;&lt;/h4&gt;" style="whiteSpace=wrap;html=1;fillColor=#ffe6cc;strokeColor=#d79b00;fontStyle=1" vertex="1" parent="1">
          <mxGeometry x="462.5" y="410" width="125" height="40" as="geometry" />
        </mxCell>
        <mxCell id="K5k7KNpOYp-Wtp5Cq2V4-35" value="&lt;h4 style=&quot;margin: 0px ; font-stretch: normal ; line-height: normal ; font-family: &amp;quot;pingfang sc&amp;quot;&quot;&gt;&lt;p class=&quot;p1&quot; style=&quot;margin: 0px; font-stretch: normal; line-height: normal; font-family: &amp;quot;pingfang sc&amp;quot;;&quot;&gt;&lt;span class=&quot;s1&quot; style=&quot;font-stretch: normal ; line-height: normal ; font-family: &amp;quot;helvetica&amp;quot;&quot;&gt;PDA&lt;/span&gt;出库功能&lt;/p&gt;&lt;/h4&gt;" style="whiteSpace=wrap;html=1;fillColor=#ffe6cc;strokeColor=#d79b00;fontStyle=1" vertex="1" parent="1">
          <mxGeometry x="780" y="410" width="125" height="40" as="geometry" />
        </mxCell>
        <mxCell id="K5k7KNpOYp-Wtp5Cq2V4-36" value="&lt;p class=&quot;p1&quot; style=&quot;margin: 0px ; font-stretch: normal ; line-height: normal ; font-family: &amp;#34;pingfang sc&amp;#34;&quot;&gt;库存查询&lt;/p&gt;&lt;p class=&quot;p1&quot; style=&quot;margin: 0px ; font-stretch: normal ; line-height: normal ; font-family: &amp;#34;pingfang sc&amp;#34;&quot;&gt;&lt;span&gt;盘点表&lt;/span&gt;&lt;/p&gt;&lt;p class=&quot;p1&quot; style=&quot;margin: 0px ; font-stretch: normal ; line-height: normal ; font-family: &amp;#34;pingfang sc&amp;#34;&quot;&gt;&lt;span&gt;盘点管理&lt;/span&gt;&lt;/p&gt;" style="whiteSpace=wrap;html=1;aspect=fixed;" vertex="1" parent="1">
          <mxGeometry x="160" y="460" width="125" height="125" as="geometry" />
        </mxCell>
        <mxCell id="K5k7KNpOYp-Wtp5Cq2V4-37" value="&lt;p class=&quot;p1&quot; style=&quot;margin: 0px ; font-stretch: normal ; line-height: normal ; font-family: &amp;quot;pingfang sc&amp;quot;&quot;&gt;入库扫描&lt;/p&gt;&lt;p class=&quot;p1&quot; style=&quot;margin: 0px ; font-stretch: normal ; line-height: normal ; font-family: &amp;quot;pingfang sc&amp;quot;&quot;&gt;入库扫描管理&lt;/p&gt;&lt;p class=&quot;p1&quot; style=&quot;margin: 0px ; font-stretch: normal ; line-height: normal ; font-family: &amp;quot;pingfang sc&amp;quot;&quot;&gt;入库盘点&lt;/p&gt;&lt;p class=&quot;p1&quot; style=&quot;margin: 0px ; font-stretch: normal ; line-height: normal ; font-family: &amp;quot;pingfang sc&amp;quot;&quot;&gt;大件物料&lt;span class=&quot;s1&quot; style=&quot;font-stretch: normal ; line-height: normal ; font-family: &amp;quot;helvetica&amp;quot;&quot;&gt;RFID&lt;/span&gt;写入&lt;span class=&quot;s1&quot; style=&quot;font-stretch: normal ; line-height: normal ; font-family: &amp;quot;helvetica&amp;quot;&quot;&gt;&lt;span class=&quot;Apple-converted-space&quot;&gt;&amp;nbsp;&lt;/span&gt;&lt;/span&gt;&lt;/p&gt;" style="whiteSpace=wrap;html=1;aspect=fixed;align=center;" vertex="1" parent="1">
          <mxGeometry x="462.5" y="460" width="125" height="125" as="geometry" />
        </mxCell>
        <mxCell id="K5k7KNpOYp-Wtp5Cq2V4-38" value="&lt;p class=&quot;p1&quot; style=&quot;margin: 0px ; font-stretch: normal ; line-height: normal ; font-family: &amp;#34;pingfang sc&amp;#34;&quot;&gt;出库扫描&lt;/p&gt;&lt;p class=&quot;p1&quot; style=&quot;margin: 0px ; font-stretch: normal ; line-height: normal ; font-family: &amp;#34;pingfang sc&amp;#34;&quot;&gt;出库扫描管理&lt;/p&gt;&lt;p class=&quot;p1&quot; style=&quot;margin: 0px ; font-stretch: normal ; line-height: normal ; font-family: &amp;#34;pingfang sc&amp;#34;&quot;&gt;出库盘点&lt;/p&gt;&lt;p class=&quot;p2&quot; style=&quot;margin: 0px ; font-stretch: normal ; line-height: normal&quot;&gt;&lt;span class=&quot;s2&quot; style=&quot;font-stretch: normal ; line-height: normal ; font-family: &amp;#34;pingfang sc&amp;#34;&quot;&gt;出库信息&lt;/span&gt;RFID&lt;span class=&quot;s2&quot; style=&quot;font-stretch: normal ; line-height: normal ; font-family: &amp;#34;pingfang sc&amp;#34;&quot;&gt;写卡&lt;/span&gt;&lt;/p&gt;" style="whiteSpace=wrap;html=1;aspect=fixed;" vertex="1" parent="1">
          <mxGeometry x="780" y="460" width="125" height="125" as="geometry" />
        </mxCell>
        <mxCell id="K5k7KNpOYp-Wtp5Cq2V4-39" value="&lt;h4&gt;&lt;p class=&quot;p1&quot; style=&quot;margin: 0px; font-stretch: normal; line-height: normal; font-family: &amp;quot;pingfang sc&amp;quot;;&quot;&gt;&lt;span class=&quot;s1&quot; style=&quot;font-stretch: normal ; line-height: normal ; font-family: &amp;quot;helvetica&amp;quot;&quot;&gt;PDA&lt;/span&gt;盘点功能&lt;/p&gt;&lt;/h4&gt;" style="whiteSpace=wrap;html=1;fillColor=#ffe6cc;strokeColor=#d79b00;fontStyle=1" vertex="1" parent="1">
          <mxGeometry x="160" y="600" width="125" height="40" as="geometry" />
        </mxCell>
        <mxCell id="K5k7KNpOYp-Wtp5Cq2V4-40" value="&lt;h4 style=&quot;margin: 0px ; font-stretch: normal ; line-height: normal ; font-family: &amp;quot;pingfang sc&amp;quot;&quot;&gt;&lt;span style=&quot;font-family: &amp;quot;pingfang sc&amp;quot;;&quot;&gt;系统设置&lt;/span&gt;&lt;br&gt;&lt;/h4&gt;" style="whiteSpace=wrap;html=1;fillColor=#ffe6cc;strokeColor=#d79b00;fontStyle=1" vertex="1" parent="1">
          <mxGeometry x="462.5" y="600" width="125" height="40" as="geometry" />
        </mxCell>
        <mxCell id="K5k7KNpOYp-Wtp5Cq2V4-41" value="&lt;h4 style=&quot;margin: 0px ; font-stretch: normal ; line-height: normal ; font-family: &amp;quot;pingfang sc&amp;quot;&quot;&gt;&lt;p class=&quot;p1&quot; style=&quot;margin: 0px; font-stretch: normal; line-height: normal; font-family: &amp;quot;pingfang sc&amp;quot;;&quot;&gt;系统报表&lt;/p&gt;&lt;/h4&gt;" style="whiteSpace=wrap;html=1;fillColor=#ffe6cc;strokeColor=#d79b00;fontStyle=1" vertex="1" parent="1">
          <mxGeometry x="780" y="600" width="125" height="40" as="geometry" />
        </mxCell>
        <mxCell id="K5k7KNpOYp-Wtp5Cq2V4-42" value="&lt;p class=&quot;p1&quot; style=&quot;margin: 0px ; font-stretch: normal ; line-height: normal ; font-family: &amp;#34;pingfang sc&amp;#34;&quot;&gt;盘点选择&lt;/p&gt;&lt;p class=&quot;p1&quot; style=&quot;margin: 0px ; font-stretch: normal ; line-height: normal ; font-family: &amp;#34;pingfang sc&amp;#34;&quot;&gt;盘点扫描&lt;/p&gt;&lt;p class=&quot;p1&quot; style=&quot;margin: 0px ; font-stretch: normal ; line-height: normal ; font-family: &amp;#34;pingfang sc&amp;#34;&quot;&gt;盘点扫描管理&lt;/p&gt;&lt;p class=&quot;p1&quot; style=&quot;margin: 0px ; font-stretch: normal ; line-height: normal ; font-family: &amp;#34;pingfang sc&amp;#34;&quot;&gt;&lt;span style=&quot;font-family: &amp;#34;helvetica&amp;#34;&quot;&gt;RFID&lt;/span&gt;&lt;span class=&quot;s2&quot; style=&quot;font-stretch: normal ; line-height: normal&quot;&gt;大件物料盘点&lt;/span&gt;&lt;/p&gt;" style="whiteSpace=wrap;html=1;aspect=fixed;" vertex="1" parent="1">
          <mxGeometry x="160" y="650" width="125" height="125" as="geometry" />
        </mxCell>
        <mxCell id="K5k7KNpOYp-Wtp5Cq2V4-43" value="&lt;p class=&quot;p1&quot; style=&quot;margin: 0px ; font-stretch: normal ; line-height: normal ; font-family: &amp;#34;pingfang sc&amp;#34;&quot;&gt;企业信息设置&lt;/p&gt;&lt;p class=&quot;p1&quot; style=&quot;margin: 0px ; font-stretch: normal ; line-height: normal ; font-family: &amp;#34;pingfang sc&amp;#34;&quot;&gt;系统用户管理&lt;/p&gt;&lt;p class=&quot;p1&quot; style=&quot;margin: 0px ; font-stretch: normal ; line-height: normal ; font-family: &amp;#34;pingfang sc&amp;#34;&quot;&gt;用户密码更改&lt;/p&gt;&lt;p class=&quot;p1&quot; style=&quot;margin: 0px ; font-stretch: normal ; line-height: normal ; font-family: &amp;#34;pingfang sc&amp;#34;&quot;&gt;用户设置&lt;/p&gt;&lt;p class=&quot;p1&quot; style=&quot;margin: 0px ; font-stretch: normal ; line-height: normal ; font-family: &amp;#34;pingfang sc&amp;#34;&quot;&gt;用户权限设置&lt;/p&gt;" style="whiteSpace=wrap;html=1;aspect=fixed;" vertex="1" parent="1">
          <mxGeometry x="462.5" y="650" width="125" height="125" as="geometry" />
        </mxCell>
        <mxCell id="K5k7KNpOYp-Wtp5Cq2V4-44" value="&lt;p class=&quot;p1&quot; style=&quot;margin: 0px ; font-stretch: normal ; line-height: normal ; font-family: &amp;#34;pingfang sc&amp;#34;&quot;&gt;物料库存报表&lt;/p&gt;&lt;p class=&quot;p1&quot; style=&quot;margin: 0px ; font-stretch: normal ; line-height: normal ; font-family: &amp;#34;pingfang sc&amp;#34;&quot;&gt;物料退货报表&lt;/p&gt;&lt;p class=&quot;p1&quot; style=&quot;margin: 0px ; font-stretch: normal ; line-height: normal ; font-family: &amp;#34;pingfang sc&amp;#34;&quot;&gt;物料损耗报表&lt;/p&gt;&lt;p class=&quot;p1&quot; style=&quot;margin: 0px ; font-stretch: normal ; line-height: normal ; font-family: &amp;#34;pingfang sc&amp;#34;&quot;&gt;成品库存报表&lt;/p&gt;&lt;p class=&quot;p1&quot; style=&quot;margin: 0px ; font-stretch: normal ; line-height: normal ; font-family: &amp;#34;pingfang sc&amp;#34;&quot;&gt;非合格品库存报表&lt;/p&gt;&lt;p class=&quot;p1&quot; style=&quot;margin: 0px ; font-stretch: normal ; line-height: normal ; font-family: &amp;#34;pingfang sc&amp;#34;&quot;&gt;物料盘点报表&lt;/p&gt;&lt;p class=&quot;p1&quot; style=&quot;margin: 0px ; font-stretch: normal ; line-height: normal ; font-family: &amp;#34;pingfang sc&amp;#34;&quot;&gt;成品盘点报表&lt;/p&gt;" style="whiteSpace=wrap;html=1;aspect=fixed;" vertex="1" parent="1">
          <mxGeometry x="780" y="650" width="125" height="125" as="geometry" />
        </mxCell>
      </root>
    </mxGraphModel>
  </diagram>
</mxfile>
